Highland Sans Bold.ufo
<glyph name="dollar" format="1">
  <advance width="1228"/>
  <unicode hex="0024"/>
  <outline>
    <contour>
      <point x="539" y="1312"/>
      <point x="521" y="1294"/>
      <point x="521" y="1249" type="curve" smooth="yes"/>
      <point x="521" y="1085" type="line"/>
      <point x="304" y="1074"/>
      <point x="164" y="963"/>
      <point x="164" y="785" type="curve" smooth="yes"/>
      <point x="164" y="665"/>
      <point x="220" y="596"/>
      <point x="299" y="555" type="curve" smooth="yes"/>
      <point x="364" y="521"/>
      <point x="443" y="506"/>
      <point x="521" y="497" type="curve"/>
      <point x="521" y="336" type="line"/>
      <point x="444" y="345"/>
      <point x="362" y="363"/>
      <point x="274" y="395" type="curve" smooth="yes"/>
      <point x="233" y="410"/>
      <point x="195" y="392"/>
      <point x="174" y="316" type="curve" smooth="yes"/>
      <point x="152" y="239"/>
      <point x="173" y="205"/>
      <point x="216" y="190" type="curve" smooth="yes"/>
      <point x="313" y="157"/>
      <point x="419" y="134"/>
      <point x="521" y="124" type="curve"/>
      <point x="521" y="-62" type="line" smooth="yes"/>
      <point x="521" y="-107"/>
      <point x="539" y="-125"/>
      <point x="614" y="-125" type="curve" smooth="yes"/>
      <point x="689" y="-125"/>
      <point x="707" y="-107"/>
      <point x="707" y="-62" type="curve" smooth="yes"/>
      <point x="707" y="120" type="line"/>
      <point x="952" y="137"/>
      <point x="1071" y="262"/>
      <point x="1071" y="437" type="curve" smooth="yes"/>
      <point x="1071" y="571"/>
      <point x="997" y="639"/>
      <point x="900" y="675" type="curve" smooth="yes"/>
      <point x="841" y="697"/>
      <point x="773" y="707"/>
      <point x="707" y="714" type="curve"/>
      <point x="707" y="865" type="line"/>
      <point x="776" y="855"/>
      <point x="850" y="837"/>
      <point x="928" y="809" type="curve" smooth="yes"/>
      <point x="969" y="794"/>
      <point x="1007" y="812"/>
      <point x="1028" y="888" type="curve" smooth="yes"/>
      <point x="1050" y="965"/>
      <point x="1029" y="999"/>
      <point x="986" y="1014" type="curve" smooth="yes"/>
      <point x="897" y="1044"/>
      <point x="801" y="1066"/>
      <point x="707" y="1077" type="curve"/>
      <point x="707" y="1249" type="line" smooth="yes"/>
      <point x="707" y="1294"/>
      <point x="689" y="1312"/>
      <point x="614" y="1312" type="curve" smooth="yes"/>
    </contour>
    <contour>
      <point x="772" y="473"/>
      <point x="812" y="454"/>
      <point x="812" y="416" type="curve" smooth="yes"/>
      <point x="812" y="375"/>
      <point x="784" y="346"/>
      <point x="707" y="335" type="curve"/>
      <point x="707" y="480" type="line"/>
    </contour>
    <contour>
      <point x="521" y="728" type="line"/>
      <point x="459" y="735"/>
      <point x="422" y="752"/>
      <point x="422" y="789" type="curve" smooth="yes"/>
      <point x="422" y="833"/>
      <point x="451" y="862"/>
      <point x="521" y="871" type="curve"/>
    </contour>
  </outline>
</glyph>
<glyph name="asterisk" format="1">
  <advance width="1228"/>
  <unicode hex="002A"/>
  <outline>
    <contour>
      <point x="947" y="470"/>
      <point x="941" y="547"/>
      <point x="884" y="597" type="curve" smooth="yes"/>
      <point x="605" y="839" type="line"/>
      <point x="551" y="800" type="line"/>
      <point x="697" y="460" type="line" smooth="yes"/>
      <point x="727" y="390"/>
      <point x="799" y="361"/>
      <point x="873" y="415" type="curve" smooth="yes"/>
    </contour>
    <contour>
      <point x="429" y="361"/>
      <point x="501" y="390"/>
      <point x="531" y="460" type="curve" smooth="yes"/>
      <point x="677" y="800" type="line"/>
      <point x="623" y="839" type="line"/>
      <point x="344" y="597" type="line" smooth="yes"/>
      <point x="287" y="547"/>
      <point x="281" y="470"/>
      <point x="355" y="415" type="curve" smooth="yes"/>
    </contour>
    <contour>
      <point x="168" y="819"/>
      <point x="218" y="759"/>
      <point x="294" y="753" type="curve"/>
      <point x="662" y="720" type="line"/>
      <point x="682" y="783" type="line"/>
      <point x="366" y="973" type="line" smooth="yes"/>
      <point x="301" y="1012"/>
      <point x="225" y="994"/>
      <point x="197" y="906" type="curve" smooth="yes"/>
    </contour>
    <contour>
      <point x="522" y="1209"/>
      <point x="481" y="1143"/>
      <point x="498" y="1069" type="curve" smooth="yes"/>
      <point x="581" y="709" type="line"/>
      <point x="647" y="709" type="line"/>
      <point x="730" y="1069" type="line" smooth="yes"/>
      <point x="747" y="1143"/>
      <point x="706" y="1209"/>
      <point x="614" y="1209" type="curve" smooth="yes"/>
    </contour>
    <contour>
      <point x="1003" y="994"/>
      <point x="927" y="1012"/>
      <point x="862" y="973" type="curve" smooth="yes"/>
      <point x="546" y="783" type="line"/>
      <point x="566" y="720" type="line"/>
      <point x="934" y="753" type="line"/>
      <point x="1010" y="759"/>
      <point x="1060" y="819"/>
      <point x="1031" y="906" type="curve" smooth="yes"/>
    </contour>
  </outline>
</glyph>
<glyph name="zero" format="1">
  <advance width="1228"/>
  <unicode hex="0030"/>
  <outline>
    <contour>
      <point x="314" y="1209"/>
      <point x="136" y="953"/>
      <point x="136" y="593" type="curve" smooth="yes"/>
      <point x="136" y="233"/>
      <point x="314" y="-22"/>
      <point x="614" y="-22" type="curve" smooth="yes"/>
      <point x="914" y="-22"/>
      <point x="1092" y="233"/>
      <point x="1092" y="593" type="curve" smooth="yes"/>
      <point x="1092" y="953"/>
      <point x="914" y="1209"/>
      <point x="614" y="1209" type="curve" smooth="yes"/>
    </contour>
    <contour>
      <point x="751" y="972"/>
      <point x="830" y="847"/>
      <point x="830" y="593" type="curve" smooth="yes"/>
      <point x="830" y="339"/>
      <point x="751" y="215"/>
      <point x="614" y="215" type="curve" smooth="yes"/>
      <point x="477" y="215"/>
      <point x="398" y="339"/>
      <point x="398" y="593" type="curve" smooth="yes"/>
      <point x="398" y="847"/>
      <point x="477" y="972"/>
      <point x="614" y="972" type="curve" smooth="yes"/>
    </contour>
  </outline>
</glyph>
<glyph name="six" format="1">
  <advance width="1228"/>
  <unicode hex="0036"/>
  <outline>
    <contour>
      <point x="444" y="1188"/>
      <point x="163" y="934"/>
      <point x="163" y="512" type="curve" smooth="yes"/>
      <point x="163" y="377"/>
      <point x="193" y="257"/>
      <point x="248" y="176" type="curve" smooth="yes"/>
      <point x="333" y="51"/>
      <point x="460" y="-22"/>
      <point x="631" y="-22" type="curve" smooth="yes"/>
      <point x="891" y="-22"/>
      <point x="1075" y="139"/>
      <point x="1075" y="366" type="curve" smooth="yes"/>
      <point x="1075" y="588"/>
      <point x="919" y="741"/>
      <point x="695" y="741" type="curve" smooth="yes"/>
      <point x="580" y="741"/>
      <point x="493" y="705"/>
      <point x="420" y="624" type="curve"/>
      <point x="459" y="851"/>
      <point x="634" y="949"/>
      <point x="998" y="967" type="curve"/>
      <point x="1023" y="969"/>
      <point x="1039" y="996"/>
      <point x="1039" y="1057" type="curve" smooth="yes"/>
      <point x="1039" y="1139"/>
      <point x="1025" y="1211"/>
      <point x="977" y="1209" type="curve" smooth="yes"/>
    </contour>
    <contour>
      <point x="751" y="529"/>
      <point x="823" y="468"/>
      <point x="823" y="365" type="curve" smooth="yes"/>
      <point x="823" y="264"/>
      <point x="744" y="201"/>
      <point x="630" y="201" type="curve" smooth="yes"/>
      <point x="509" y="201"/>
      <point x="440" y="280"/>
      <point x="440" y="371" type="curve"/>
      <point x="440" y="465"/>
      <point x="521" y="529"/>
      <point x="638" y="529" type="curve" smooth="yes"/>
    </contour>
  </outline>
</glyph>
<glyph name="seven" format="1">
  <advance width="1228"/>
  <unicode hex="0037"/>
  <outline>
    <contour>
      <point x="763" y="1187" type="line"/>
      <point x="764" y="972" type="line"/>
      <point x="392" y="97" type="line" smooth="yes"/>
      <point x="369" y="42"/>
      <point x="399" y="8"/>
      <point x="490" y="-13" type="curve" smooth="yes"/>
      <point x="571" y="-32"/>
      <point x="615" y="-20"/>
      <point x="634" y="24" type="curve" smooth="yes"/>
      <point x="1051" y="1012" type="line" smooth="yes"/>
      <point x="1057" y="1027"/>
      <point x="1060" y="1050"/>
      <point x="1060" y="1084" type="curve" smooth="yes"/>
      <point x="1060" y="1169"/>
      <point x="1042" y="1187"/>
      <point x="997" y="1187" type="curve" smooth="yes"/>
    </contour>
    <contour>
      <point x="231" y="1187" type="line" smooth="yes"/>
      <point x="186" y="1187"/>
      <point x="168" y="1164"/>
      <point x="168" y="1069" type="curve" smooth="yes"/>
      <point x="168" y="974"/>
      <point x="186" y="952"/>
      <point x="231" y="952" type="curve" smooth="yes"/>
      <point x="863" y="952" type="line"/>
      <point x="863" y="1187" type="line"/>
    </contour>
  </outline>
</glyph>
<glyph name="eight" format="1">
  <advance width="1228"/>
  <unicode hex="0038"/>
  <outline>
    <contour>
      <point x="362" y="1209"/>
      <point x="213" y="1056"/>
      <point x="213" y="871" type="curve" smooth="yes"/>
      <point x="213" y="744"/>
      <point x="274" y="663"/>
      <point x="373" y="619" type="curve"/>
      <point x="251" y="574"/>
      <point x="174" y="484"/>
      <point x="174" y="335" type="curve" smooth="yes"/>
      <point x="174" y="111"/>
      <point x="350" y="-22"/>
      <point x="614" y="-22" type="curve" smooth="yes"/>
      <point x="878" y="-22"/>
      <point x="1054" y="111"/>
      <point x="1054" y="335" type="curve" smooth="yes"/>
      <point x="1054" y="484"/>
      <point x="976" y="574"/>
      <point x="855" y="619" type="curve"/>
      <point x="953" y="663"/>
      <point x="1015" y="744"/>
      <point x="1015" y="871" type="curve" smooth="yes"/>
      <point x="1015" y="1056"/>
      <point x="866" y="1209"/>
      <point x="614" y="1209" type="curve" smooth="yes"/>
    </contour>
    <contour>
      <point x="731" y="518"/>
      <point x="794" y="452"/>
      <point x="794" y="356" type="curve" smooth="yes"/>
      <point x="794" y="260"/>
      <point x="731" y="196"/>
      <point x="614" y="196" type="curve" smooth="yes"/>
      <point x="497" y="196"/>
      <point x="434" y="260"/>
      <point x="434" y="356" type="curve" smooth="yes"/>
      <point x="434" y="452"/>
      <point x="497" y="518"/>
      <point x="614" y="518" type="curve" smooth="yes"/>
    </contour>
    <contour>
      <point x="709" y="991"/>
      <point x="771" y="935"/>
      <point x="771" y="851" type="curve" smooth="yes"/>
      <point x="771" y="768"/>
      <point x="712" y="712"/>
      <point x="614" y="712" type="curve" smooth="yes"/>
      <point x="516" y="712"/>
      <point x="457" y="768"/>
      <point x="457" y="851" type="curve" smooth="yes"/>
      <point x="457" y="935"/>
      <point x="519" y="991"/>
      <point x="614" y="991" type="curve" smooth="yes"/>
    </contour>
  </outline>
</glyph>
<glyph name="question" format="1">
  <advance width="1228"/>
  <unicode hex="003F"/>
  <outline>
    <contour>
      <point x="490" y="1269"/>
      <point x="387" y="1243"/>
      <point x="304" y="1204" type="curve" smooth="yes"/>
      <point x="264" y="1185"/>
      <point x="253" y="1150"/>
      <point x="284" y="1073" type="curve" smooth="yes"/>
      <point x="314" y="996"/>
      <point x="344" y="983"/>
      <point x="376" y="996" type="curve" smooth="yes"/>
      <point x="442" y="1024"/>
      <point x="515" y="1042"/>
      <point x="588" y="1042" type="curve" smooth="yes"/>
      <point x="692" y="1042"/>
      <point x="747" y="998"/>
      <point x="747" y="907" type="curve" smooth="yes"/>
      <point x="747" y="827"/>
      <point x="700" y="785"/>
      <point x="605" y="767" type="curve" smooth="yes"/>
      <point x="502" y="747" type="line" smooth="yes"/>
      <point x="477" y="742"/>
      <point x="470" y="722"/>
      <point x="471" y="696" type="curve" smooth="yes"/>
      <point x="483" y="467" type="line" smooth="yes"/>
      <point x="485" y="436"/>
      <point x="507" y="419"/>
      <point x="584" y="419" type="curve" smooth="yes"/>
      <point x="661" y="419"/>
      <point x="683" y="436"/>
      <point x="685" y="467" type="curve" smooth="yes"/>
      <point x="691" y="563" type="line"/>
      <point x="895" y="622"/>
      <point x="998" y="713"/>
      <point x="998" y="914" type="curve" smooth="yes"/>
      <point x="998" y="1134"/>
      <point x="858" y="1269"/>
      <point x="590" y="1269" type="curve" smooth="yes"/>
    </contour>
    <contour>
      <point x="482" y="290"/>
      <point x="439" y="272"/>
      <point x="439" y="227" type="curve" smooth="yes"/>
      <point x="439" y="53" type="line" smooth="yes"/>
      <point x="439" y="8"/>
      <point x="482" y="-10"/>
      <point x="584" y="-10" type="curve" smooth="yes"/>
      <point x="686" y="-10"/>
      <point x="729" y="8"/>
      <point x="729" y="53" type="curve" smooth="yes"/>
      <point x="729" y="227" type="line" smooth="yes"/>
      <point x="729" y="272"/>
      <point x="686" y="290"/>
      <point x="584" y="290" type="curve" smooth="yes"/>
    </contour>
  </outline>
</glyph>
<glyph name="B" format="1">
  <advance width="1228"/>
  <unicode hex="0042"/>
  <outline>
    <contour>
      <point x="243" y="1187" type="line" smooth="yes"/>
      <point x="198" y="1187"/>
      <point x="180" y="1169"/>
      <point x="180" y="1124" type="curve" smooth="yes"/>
      <point x="180" y="63" type="line" smooth="yes"/>
      <point x="180" y="18"/>
      <point x="198" y="0"/>
      <point x="243" y="0" type="curve" smooth="yes"/>
      <point x="680" y="0" type="line" smooth="yes"/>
      <point x="954" y="0"/>
      <point x="1106" y="116"/>
      <point x="1106" y="344" type="curve" smooth="yes"/>
      <point x="1106" y="496"/>
      <point x="1022" y="582"/>
      <point x="902" y="621" type="curve"/>
      <point x="1005" y="668"/>
      <point x="1064" y="751"/>
      <point x="1064" y="864" type="curve" smooth="yes"/>
      <point x="1064" y="1059"/>
      <point x="942" y="1187"/>
      <point x="654" y="1187" type="curve" smooth="yes"/>
    </contour>
    <contour>
      <point x="783" y="499"/>
      <point x="846" y="453"/>
      <point x="846" y="354" type="curve" smooth="yes"/>
      <point x="846" y="263"/>
      <point x="785" y="215"/>
      <point x="652" y="215" type="curve" smooth="yes"/>
      <point x="430" y="215" type="line"/>
      <point x="430" y="499" type="line"/>
      <point x="652" y="499" type="line" smooth="yes"/>
    </contour>
    <contour>
      <point x="755" y="972"/>
      <point x="810" y="934"/>
      <point x="810" y="844" type="curve" smooth="yes"/>
      <point x="810" y="755"/>
      <point x="752" y="714"/>
      <point x="632" y="714" type="curve" smooth="yes"/>
      <point x="430" y="714" type="line"/>
      <point x="430" y="972" type="line"/>
      <point x="632" y="972" type="line" smooth="yes"/>
    </contour>
  </outline>
</glyph>
<glyph name="G" format="1">
  <advance width="1228"/>
  <unicode hex="0047"/>
  <outline>
    <contour>
      <point x="304" y="1209"/>
      <point x="86" y="974"/>
      <point x="86" y="594" type="curve" smooth="yes"/>
      <point x="86" y="214"/>
      <point x="304" y="-22"/>
      <point x="634" y="-22" type="curve" smooth="yes"/>
      <point x="795" y="-22"/>
      <point x="946" y="11"/>
      <point x="1062" y="74" type="curve" smooth="yes"/>
      <point x="1085" y="86"/>
      <point x="1098" y="111"/>
      <point x="1098" y="143" type="curve"/>
      <point x="945" y="285" type="line"/>
      <point x="845" y="238"/>
      <point x="753" y="215"/>
      <point x="644" y="215" type="curve" smooth="yes"/>
      <point x="457" y="215"/>
      <point x="348" y="346"/>
      <point x="348" y="594" type="curve" smooth="yes"/>
      <point x="348" y="842"/>
      <point x="457" y="972"/>
      <point x="644" y="972" type="curve" smooth="yes"/>
      <point x="753" y="972"/>
      <point x="856" y="946"/>
      <point x="955" y="902" type="curve" smooth="yes"/>
      <point x="995" y="884"/>
      <point x="1036" y="899"/>
      <point x="1063" y="979" type="curve" smooth="yes"/>
      <point x="1091" y="1060"/>
      <point x="1074" y="1102"/>
      <point x="1031" y="1122" type="curve" smooth="yes"/>
      <point x="915" y="1176"/>
      <point x="775" y="1209"/>
      <point x="634" y="1209" type="curve" smooth="yes"/>
    </contour>
    <contour>
      <point x="632" y="667" type="line" smooth="yes"/>
      <point x="587" y="667"/>
      <point x="569" y="644"/>
      <point x="569" y="549" type="curve" smooth="yes"/>
      <point x="569" y="454"/>
      <point x="587" y="432"/>
      <point x="632" y="432" type="curve"/>
      <point x="954" y="432" type="line"/>
      <point x="954" y="667" type="line"/>
    </contour>
    <contour>
      <point x="848" y="667" type="line"/>
      <point x="848" y="143" type="line"/>
      <point x="1098" y="143" type="line"/>
      <point x="1098" y="604" type="line" smooth="yes"/>
      <point x="1098" y="649"/>
      <point x="1080" y="667"/>
      <point x="1035" y="667" type="curve" smooth="yes"/>
    </contour>
  </outline>
</glyph>
<glyph name="N" format="1">
  <advance width="1228"/>
  <unicode hex="004E"/>
  <outline>
    <contour>
      <point x="915" y="1187" type="line" smooth="yes"/>
      <point x="870" y="1187"/>
      <point x="852" y="1169"/>
      <point x="852" y="1124" type="curve" smooth="yes"/>
      <point x="852" y="496" type="line"/>
      <point x="848" y="496" type="line"/>
      <point x="391" y="1163" type="line" smooth="yes"/>
      <point x="379" y="1181"/>
      <point x="361" y="1187"/>
      <point x="337" y="1187" type="curve" smooth="yes"/>
      <point x="203" y="1187" type="line" smooth="yes"/>
      <point x="158" y="1187"/>
      <point x="140" y="1169"/>
      <point x="140" y="1124" type="curve" smooth="yes"/>
      <point x="140" y="63" type="line" smooth="yes"/>
      <point x="140" y="18"/>
      <point x="158" y="0"/>
      <point x="203" y="0" type="curve" smooth="yes"/>
      <point x="313" y="0" type="line" smooth="yes"/>
      <point x="358" y="0"/>
      <point x="376" y="18"/>
      <point x="376" y="63" type="curve" smooth="yes"/>
      <point x="376" y="747" type="line"/>
      <point x="380" y="747" type="line"/>
      <point x="869" y="33" type="line" smooth="yes"/>
      <point x="893" y="-2"/>
      <point x="915" y="-22"/>
      <point x="978" y="-22" type="curve" smooth="yes"/>
      <point x="1062" y="-22"/>
      <point x="1088" y="2"/>
      <point x="1088" y="44" type="curve" smooth="yes"/>
      <point x="1088" y="1124" type="line" smooth="yes"/>
      <point x="1088" y="1169"/>
      <point x="1070" y="1187"/>
      <point x="1025" y="1187" type="curve" smooth="yes"/>
    </contour>
  </outline>
</glyph>
<glyph name="O" format="1">
  <advance width="1228"/>
  <unicode hex="004F"/>
  <outline>
    <contour>
      <point x="284" y="1209"/>
      <point x="66" y="974"/>
      <point x="66" y="594" type="curve" smooth="yes"/>
      <point x="66" y="214"/>
      <point x="284" y="-22"/>
      <point x="614" y="-22" type="curve" smooth="yes"/>
      <point x="944" y="-22"/>
      <point x="1162" y="214"/>
      <point x="1162" y="594" type="curve" smooth="yes"/>
      <point x="1162" y="974"/>
      <point x="944" y="1209"/>
      <point x="614" y="1209" type="curve" smooth="yes"/>
    </contour>
    <contour>
      <point x="801" y="972"/>
      <point x="900" y="837"/>
      <point x="900" y="594" type="curve" smooth="yes"/>
      <point x="900" y="351"/>
      <point x="801" y="215"/>
      <point x="614" y="215" type="curve" smooth="yes"/>
      <point x="427" y="215"/>
      <point x="328" y="351"/>
      <point x="328" y="594" type="curve" smooth="yes"/>
      <point x="328" y="837"/>
      <point x="427" y="972"/>
      <point x="614" y="972" type="curve" smooth="yes"/>
    </contour>
  </outline>
</glyph>
<glyph name="Y" format="1">
  <advance width="1228"/>
  <unicode hex="0059"/>
  <outline>
    <contour>
      <point x="489" y="564" type="line"/>
      <point x="489" y="63" type="line" smooth="yes"/>
      <point x="489" y="18"/>
      <point x="507" y="0"/>
      <point x="552" y="0" type="curve" smooth="yes"/>
      <point x="676" y="0" type="line" smooth="yes"/>
      <point x="721" y="0"/>
      <point x="739" y="18"/>
      <point x="739" y="63" type="curve" smooth="yes"/>
      <point x="739" y="564" type="line"/>
    </contour>
    <contour>
      <point x="957" y="1209"/>
      <point x="921" y="1210"/>
      <point x="896" y="1169" type="curve" smooth="yes"/>
      <point x="555" y="607" type="line"/>
      <point x="701" y="391" type="line"/>
      <point x="1118" y="1059" type="line" smooth="yes"/>
      <point x="1143" y="1100"/>
      <point x="1135" y="1136"/>
      <point x="1046" y="1173" type="curve" smooth="yes"/>
    </contour>
    <contour>
      <point x="95" y="1136"/>
      <point x="85" y="1100"/>
      <point x="110" y="1059" type="curve" smooth="yes"/>
      <point x="527" y="391" type="line"/>
      <point x="679" y="604" type="line"/>
      <point x="336" y="1169" type="line" smooth="yes"/>
      <point x="311" y="1210"/>
      <point x="273" y="1209"/>
      <point x="184" y="1173" type="curve" smooth="yes"/>
    </contour>
  </outline>
</glyph>
<glyph name="c" format="1">
  <advance width="1228"/>
  <unicode hex="0063"/>
  <outline>
    <contour>
      <point x="345" y="946"/>
      <point x="137" y="742"/>
      <point x="137" y="462" type="curve" smooth="yes"/>
      <point x="137" y="182"/>
      <point x="345" y="-22"/>
      <point x="654" y="-22" type="curve" smooth="yes"/>
      <point x="793" y="-22"/>
      <point x="926" y="24"/>
      <point x="1045" y="88" type="curve" smooth="yes"/>
      <point x="1087" y="111"/>
      <point x="1103" y="151"/>
      <point x="1070" y="230" type="curve" smooth="yes"/>
      <point x="1037" y="308"/>
      <point x="997" y="321"/>
      <point x="958" y="299" type="curve" smooth="yes"/>
      <point x="860" y="244"/>
      <point x="756" y="210"/>
      <point x="654" y="210" type="curve" smooth="yes"/>
      <point x="506" y="210"/>
      <point x="401" y="306"/>
      <point x="401" y="462" type="curve" smooth="yes"/>
      <point x="401" y="618"/>
      <point x="506" y="714"/>
      <point x="654" y="714" type="curve" smooth="yes"/>
      <point x="750" y="714"/>
      <point x="846" y="685"/>
      <point x="941" y="636" type="curve" smooth="yes"/>
      <point x="981" y="615"/>
      <point x="1021" y="629"/>
      <point x="1051" y="708" type="curve" smooth="yes"/>
      <point x="1082" y="788"/>
      <point x="1064" y="828"/>
      <point x="1022" y="849" type="curve" smooth="yes"/>
      <point x="906" y="908"/>
      <point x="773" y="946"/>
      <point x="654" y="946" type="curve" smooth="yes"/>
    </contour>
  </outline>
</glyph>
<glyph name="d" format="1">
  <advance width="1228"/>
  <unicode hex="0064"/>
  <outline>
    <contour>
      <point x="874" y="1312" type="line" smooth="yes"/>
      <point x="829" y="1312"/>
      <point x="811" y="1294"/>
      <point x="811" y="1249" type="curve"/>
      <point x="811" y="828" type="line"/>
      <point x="744" y="902"/>
      <point x="654" y="946"/>
      <point x="548" y="946" type="curve" smooth="yes"/>
      <point x="279" y="946"/>
      <point x="123" y="732"/>
      <point x="123" y="462" type="curve" smooth="yes"/>
      <point x="123" y="192"/>
      <point x="279" y="-22"/>
      <point x="548" y="-22" type="curve" smooth="yes"/>
      <point x="672" y="-22"/>
      <point x="775" y="38"/>
      <point x="841" y="137" type="curve"/>
      <point x="841" y="63" type="line" smooth="yes"/>
      <point x="841" y="18"/>
      <point x="859" y="0"/>
      <point x="904" y="0" type="curve" smooth="yes"/>
      <point x="998" y="0" type="line" smooth="yes"/>
      <point x="1043" y="0"/>
      <point x="1061" y="18"/>
      <point x="1061" y="63" type="curve" smooth="yes"/>
      <point x="1061" y="1249" type="line" smooth="yes"/>
      <point x="1061" y="1294"/>
      <point x="1043" y="1312"/>
      <point x="998" y="1312" type="curve" smooth="yes"/>
    </contour>
    <contour>
      <point x="713" y="714"/>
      <point x="818" y="626"/>
      <point x="818" y="462" type="curve" smooth="yes"/>
      <point x="818" y="298"/>
      <point x="713" y="210"/>
      <point x="588" y="210" type="curve" smooth="yes"/>
      <point x="463" y="210"/>
      <point x="385" y="308"/>
      <point x="385" y="462" type="curve" smooth="yes"/>
      <point x="385" y="616"/>
      <point x="463" y="714"/>
      <point x="588" y="714" type="curve" smooth="yes"/>
    </contour>
  </outline>
</glyph>
<glyph name="g" format="1">
  <advance width="1228"/>
  <unicode hex="0067"/>
  <outline>
    <contour>
      <point x="286" y="946"/>
      <point x="123" y="747"/>
      <point x="123" y="477" type="curve" smooth="yes"/>
      <point x="123" y="213"/>
      <point x="286" y="18"/>
      <point x="548" y="18" type="curve" smooth="yes"/>
      <point x="653" y="18"/>
      <point x="744" y="56"/>
      <point x="811" y="123" type="curve"/>
      <point x="811" y="21" type="line" smooth="yes"/>
      <point x="811" y="-113"/>
      <point x="747" y="-183"/>
      <point x="582" y="-183" type="curve" smooth="yes"/>
      <point x="494" y="-183"/>
      <point x="382" y="-157"/>
      <point x="275" y="-124" type="curve" smooth="yes"/>
      <point x="232" y="-111"/>
      <point x="199" y="-128"/>
      <point x="174" y="-209" type="curve" smooth="yes"/>
      <point x="149" y="-291"/>
      <point x="161" y="-333"/>
      <point x="209" y="-348" type="curve" smooth="yes"/>
      <point x="335" y="-388"/>
      <point x="480" y="-410"/>
      <point x="592" y="-410" type="curve" smooth="yes"/>
      <point x="910" y="-410"/>
      <point x="1061" y="-255"/>
      <point x="1061" y="1" type="curve" smooth="yes"/>
      <point x="1061" y="861" type="line" smooth="yes"/>
      <point x="1061" y="906"/>
      <point x="1043" y="924"/>
      <point x="998" y="924" type="curve" smooth="yes"/>
      <point x="904" y="924" type="line" smooth="yes"/>
      <point x="859" y="924"/>
      <point x="841" y="906"/>
      <point x="841" y="861" type="curve" smooth="yes"/>
      <point x="841" y="801" type="line"/>
      <point x="774" y="894"/>
      <point x="672" y="946"/>
      <point x="548" y="946" type="curve" smooth="yes"/>
    </contour>
    <contour>
      <point x="713" y="714"/>
      <point x="818" y="637"/>
      <point x="818" y="477" type="curve" smooth="yes"/>
      <point x="818" y="317"/>
      <point x="713" y="240"/>
      <point x="588" y="240" type="curve" smooth="yes"/>
      <point x="466" y="240"/>
      <point x="385" y="323"/>
      <point x="385" y="477" type="curve" smooth="yes"/>
      <point x="385" y="631"/>
      <point x="466" y="714"/>
      <point x="588" y="714" type="curve" smooth="yes"/>
    </contour>
  </outline>
</glyph>
<glyph name="k" format="1">
  <advance width="1228"/>
  <unicode hex="006B"/>
  <outline>
    <contour>
      <point x="938" y="941"/>
      <point x="891" y="949"/>
      <point x="852" y="916" type="curve" smooth="yes"/>
      <point x="301" y="454" type="line"/>
      <point x="407" y="234" type="line"/>
      <point x="1049" y="751" type="line" smooth="yes"/>
      <point x="1092" y="786"/>
      <point x="1077" y="826"/>
      <point x="1001" y="889" type="curve" smooth="yes"/>
    </contour>
    <contour>
      <point x="266" y="1312" type="line" smooth="yes"/>
      <point x="221" y="1312"/>
      <point x="203" y="1294"/>
      <point x="203" y="1249" type="curve" smooth="yes"/>
      <point x="203" y="63" type="line" smooth="yes"/>
      <point x="203" y="18"/>
      <point x="221" y="0"/>
      <point x="266" y="0" type="curve" smooth="yes"/>
      <point x="390" y="0" type="line" smooth="yes"/>
      <point x="435" y="0"/>
      <point x="453" y="18"/>
      <point x="453" y="63" type="curve" smooth="yes"/>
      <point x="453" y="1249" type="line" smooth="yes"/>
      <point x="453" y="1294"/>
      <point x="435" y="1312"/>
      <point x="390" y="1312" type="curve" smooth="yes"/>
    </contour>
    <contour>
      <point x="512" y="446" type="line"/>
      <point x="861" y="14" type="line" smooth="yes"/>
      <point x="891" y="-26"/>
      <point x="936" y="-25"/>
      <point x="1015" y="24" type="curve" smooth="yes"/>
      <point x="1097" y="75"/>
      <point x="1107" y="113"/>
      <point x="1069" y="162" type="curve" smooth="yes"/>
      <point x="703" y="610" type="line"/>
    </contour>
  </outline>
</glyph>
<glyph name="m" format="1">
  <advance width="1228"/>
  <unicode hex="006D"/>
  <outline>
    <contour>
      <point x="854" y="946"/>
      <point x="771" y="878"/>
      <point x="709" y="743" type="curve"/>
      <point x="682" y="871"/>
      <point x="622" y="946"/>
      <point x="518" y="946" type="curve" smooth="yes"/>
      <point x="428" y="946"/>
      <point x="346" y="875"/>
      <point x="288" y="737" type="curve"/>
      <point x="288" y="861" type="line" smooth="yes"/>
      <point x="288" y="906"/>
      <point x="270" y="924"/>
      <point x="225" y="924" type="curve" smooth="yes"/>
      <point x="151" y="924" type="line" smooth="yes"/>
      <point x="106" y="924"/>
      <point x="88" y="906"/>
      <point x="88" y="861" type="curve" smooth="yes"/>
      <point x="88" y="63" type="line" smooth="yes"/>
      <point x="88" y="18"/>
      <point x="106" y="0"/>
      <point x="151" y="0" type="curve" smooth="yes"/>
      <point x="275" y="0" type="line" smooth="yes"/>
      <point x="320" y="0"/>
      <point x="338" y="18"/>
      <point x="338" y="63" type="curve" smooth="yes"/>
      <point x="338" y="403" type="line" smooth="yes"/>
      <point x="338" y="595"/>
      <point x="379" y="689"/>
      <point x="440" y="689" type="curve" smooth="yes"/>
      <point x="477" y="689"/>
      <point x="492" y="655"/>
      <point x="492" y="586" type="curve" smooth="yes"/>
      <point x="492" y="63" type="line" smooth="yes"/>
      <point x="492" y="18"/>
      <point x="510" y="0"/>
      <point x="555" y="0" type="curve" smooth="yes"/>
      <point x="679" y="0" type="line" smooth="yes"/>
      <point x="724" y="0"/>
      <point x="742" y="18"/>
      <point x="742" y="63" type="curve" smooth="yes"/>
      <point x="742" y="403" type="line" smooth="yes"/>
      <point x="742" y="595"/>
      <point x="783" y="689"/>
      <point x="844" y="689" type="curve" smooth="yes"/>
      <point x="881" y="689"/>
      <point x="896" y="655"/>
      <point x="896" y="586" type="curve" smooth="yes"/>
      <point x="896" y="63" type="line" smooth="yes"/>
      <point x="896" y="18"/>
      <point x="914" y="0"/>
      <point x="959" y="0" type="curve" smooth="yes"/>
      <point x="1083" y="0" type="line" smooth="yes"/>
      <point x="1128" y="0"/>
      <point x="1146" y="18"/>
      <point x="1146" y="63" type="curve" smooth="yes"/>
      <point x="1146" y="643" type="line" smooth="yes"/>
      <point x="1146" y="855"/>
      <point x="1065" y="946"/>
      <point x="948" y="946" type="curve" smooth="yes"/>
    </contour>
  </outline>
</glyph>
<glyph name="n" format="1">
  <advance width="1228"/>
  <unicode hex="006E"/>
  <outline>
    <contour>
      <point x="605" y="946"/>
      <point x="480" y="863"/>
      <point x="390" y="736" type="curve"/>
      <point x="390" y="861" type="line" smooth="yes"/>
      <point x="390" y="906"/>
      <point x="372" y="924"/>
      <point x="327" y="924" type="curve" smooth="yes"/>
      <point x="233" y="924" type="line" smooth="yes"/>
      <point x="188" y="924"/>
      <point x="170" y="906"/>
      <point x="170" y="861" type="curve" smooth="yes"/>
      <point x="170" y="63" type="line" smooth="yes"/>
      <point x="170" y="18"/>
      <point x="188" y="0"/>
      <point x="233" y="0" type="curve" smooth="yes"/>
      <point x="357" y="0" type="line" smooth="yes"/>
      <point x="402" y="0"/>
      <point x="420" y="18"/>
      <point x="420" y="63" type="curve" smooth="yes"/>
      <point x="420" y="358" type="line" smooth="yes"/>
      <point x="420" y="546"/>
      <point x="556" y="709"/>
      <point x="685" y="709" type="curve" smooth="yes"/>
      <point x="783" y="709"/>
      <point x="822" y="649"/>
      <point x="822" y="551" type="curve" smooth="yes"/>
      <point x="822" y="63" type="line" smooth="yes"/>
      <point x="822" y="18"/>
      <point x="840" y="0"/>
      <point x="885" y="0" type="curve" smooth="yes"/>
      <point x="1009" y="0" type="line" smooth="yes"/>
      <point x="1054" y="0"/>
      <point x="1072" y="18"/>
      <point x="1072" y="63" type="curve" smooth="yes"/>
      <point x="1072" y="610" type="line" smooth="yes"/>
      <point x="1072" y="810"/>
      <point x="949" y="946"/>
      <point x="750" y="946" type="curve" smooth="yes"/>
    </contour>
  </outline>
</glyph>
<glyph name="r" format="1">
  <advance width="1228"/>
  <unicode hex="0072"/>
  <outline>
    <contour>
      <point x="724" y="946"/>
      <point x="579" y="850"/>
      <point x="487" y="690" type="curve"/>
      <point x="487" y="861" type="line" smooth="yes"/>
      <point x="487" y="906"/>
      <point x="469" y="924"/>
      <point x="424" y="924" type="curve" smooth="yes"/>
      <point x="320" y="924" type="line" smooth="yes"/>
      <point x="275" y="924"/>
      <point x="257" y="906"/>
      <point x="257" y="861" type="curve" smooth="yes"/>
      <point x="257" y="63" type="line" smooth="yes"/>
      <point x="257" y="18"/>
      <point x="275" y="0"/>
      <point x="320" y="0" type="curve" smooth="yes"/>
      <point x="444" y="0" type="line" smooth="yes"/>
      <point x="489" y="0"/>
      <point x="507" y="18"/>
      <point x="507" y="63" type="curve" smooth="yes"/>
      <point x="507" y="290" type="line" smooth="yes"/>
      <point x="507" y="517"/>
      <point x="669" y="678"/>
      <point x="867" y="678" type="curve" smooth="yes"/>
      <point x="902" y="678"/>
      <point x="938" y="673"/>
      <point x="975" y="662" type="curve" smooth="yes"/>
      <point x="1021" y="649"/>
      <point x="1056" y="682"/>
      <point x="1076" y="767" type="curve" smooth="yes"/>
      <point x="1094" y="845"/>
      <point x="1084" y="894"/>
      <point x="1030" y="916" type="curve" smooth="yes"/>
      <point x="980" y="936"/>
      <point x="929" y="946"/>
      <point x="880" y="946" type="curve" smooth="yes"/>
    </contour>
  </outline>
</glyph>
<glyph name="t" format="1">
  <advance width="1228"/>
  <unicode hex="0074"/>
  <outline>
    <contour>
      <point x="390" y="1209"/>
      <point x="353" y="1191"/>
      <point x="353" y="1146" type="curve" smooth="yes"/>
      <point x="353" y="358" type="line" smooth="yes"/>
      <point x="353" y="109"/>
      <point x="478" y="-22"/>
      <point x="710" y="-22" type="curve" smooth="yes"/>
      <point x="825" y="-22"/>
      <point x="946" y="16"/>
      <point x="1067" y="77" type="curve" smooth="yes"/>
      <point x="1111" y="99"/>
      <point x="1122" y="138"/>
      <point x="1091" y="217" type="curve" smooth="yes"/>
      <point x="1060" y="296"/>
      <point x="1024" y="306"/>
      <point x="983" y="288" type="curve" smooth="yes"/>
      <point x="895" y="249"/>
      <point x="800" y="215"/>
      <point x="732" y="215" type="curve" smooth="yes"/>
      <point x="650" y="215"/>
      <point x="603" y="263"/>
      <point x="603" y="376" type="curve" smooth="yes"/>
      <point x="603" y="1146" type="line" smooth="yes"/>
      <point x="603" y="1191"/>
      <point x="580" y="1209"/>
      <point x="485" y="1209" type="curve" smooth="yes"/>
    </contour>
    <contour>
      <point x="160" y="864" type="line" smooth="yes"/>
      <point x="115" y="864"/>
      <point x="97" y="841"/>
      <point x="97" y="751" type="curve" smooth="yes"/>
      <point x="97" y="661"/>
      <point x="115" y="639"/>
      <point x="160" y="639" type="curve" smooth="yes"/>
      <point x="974" y="639" type="line" smooth="yes"/>
      <point x="1019" y="639"/>
      <point x="1037" y="661"/>
      <point x="1037" y="751" type="curve" smooth="yes"/>
      <point x="1037" y="841"/>
      <point x="1019" y="864"/>
      <point x="974" y="864" type="curve" smooth="yes"/>
    </contour>
  </outline>
</glyph>
<glyph name="w" format="1">
  <advance width="1228"/>
  <unicode hex="0077"/>
  <outline>
    <contour>
      <point x="989" y="940"/>
      <point x="954" y="930"/>
      <point x="945" y="883" type="curve" smooth="yes"/>
      <point x="851" y="373" type="line"/>
      <point x="708" y="717" type="line" smooth="yes"/>
      <point x="694" y="751"/>
      <point x="670" y="767"/>
      <point x="611" y="767" type="curve" smooth="yes"/>
      <point x="553" y="767"/>
      <point x="530" y="745"/>
      <point x="515" y="710" type="curve" smooth="yes"/>
      <point x="370" y="373" type="line"/>
      <point x="283" y="883" type="line" smooth="yes"/>
      <point x="275" y="930"/>
      <point x="236" y="940"/>
      <point x="151" y="930" type="curve" smooth="yes"/>
      <point x="65" y="920"/>
      <point x="41" y="896"/>
      <point x="50" y="849" type="curve" smooth="yes"/>
      <point x="203" y="43" type="line" smooth="yes"/>
      <point x="212" y="-4"/>
      <point x="241" y="-22"/>
      <point x="322" y="-22" type="curve" smooth="yes"/>
      <point x="403" y="-22"/>
      <point x="442" y="-1"/>
      <point x="461" y="43" type="curve" smooth="yes"/>
      <point x="611" y="395" type="line"/>
      <point x="757" y="43" type="line" smooth="yes"/>
      <point x="775" y="-1"/>
      <point x="813" y="-22"/>
      <point x="894" y="-22" type="curve" smooth="yes"/>
      <point x="975" y="-22"/>
      <point x="1006" y="-5"/>
      <point x="1015" y="43" type="curve" smooth="yes"/>
      <point x="1173" y="849" type="line" smooth="yes"/>
      <point x="1182" y="896"/>
      <point x="1160" y="920"/>
      <point x="1074" y="930" type="curve" smooth="yes"/>
    </contour>
  </outline>
</glyph>
<glyph name="section" format="1">
  <advance width="1228"/>
  <unicode hex="00A7"/>
  <outline>
    <contour>
      <point x="575" y="1187" type="line" smooth="yes"/>
      <point x="380" y="1187"/>
      <point x="278" y="1071"/>
      <point x="278" y="907" type="curve" smooth="yes"/>
      <point x="278" y="774"/>
      <point x="342" y="693"/>
      <point x="466" y="632" type="curve" smooth="yes"/>
      <point x="711" y="510" type="line" smooth="yes"/>
      <point x="778" y="477"/>
      <point x="813" y="445"/>
      <point x="813" y="382" type="curve" smooth="yes"/>
      <point x="813" y="329"/>
      <point x="783" y="298"/>
      <point x="724" y="268" type="curve"/>
      <point x="860" y="105" type="line"/>
      <point x="987" y="169"/>
      <point x="1055" y="269"/>
      <point x="1055" y="399" type="curve" smooth="yes"/>
      <point x="1055" y="541"/>
      <point x="986" y="636"/>
      <point x="863" y="698" type="curve" smooth="yes"/>
      <point x="622" y="819" type="line" smooth="yes"/>
      <point x="564" y="848"/>
      <point x="527" y="875"/>
      <point x="527" y="914" type="curve" smooth="yes"/>
      <point x="527" y="958"/>
      <point x="554" y="982"/>
      <point x="611" y="982" type="curve" smooth="yes"/>
      <point x="925" y="982" type="line" smooth="yes"/>
      <point x="970" y="982"/>
      <point x="988" y="1002"/>
      <point x="988" y="1084" type="curve" smooth="yes"/>
      <point x="988" y="1166"/>
      <point x="970" y="1187"/>
      <point x="925" y="1187" type="curve" smooth="yes"/>
    </contour>
    <contour>
      <point x="241" y="788"/>
      <point x="173" y="688"/>
      <point x="173" y="558" type="curve" smooth="yes"/>
      <point x="173" y="416"/>
      <point x="242" y="321"/>
      <point x="365" y="259" type="curve" smooth="yes"/>
      <point x="606" y="138" type="line" smooth="yes"/>
      <point x="664" y="109"/>
      <point x="701" y="82"/>
      <point x="701" y="43" type="curve" smooth="yes"/>
      <point x="701" y="-1"/>
      <point x="674" y="-25"/>
      <point x="617" y="-25" type="curve" smooth="yes"/>
      <point x="303" y="-25" type="line" smooth="yes"/>
      <point x="258" y="-25"/>
      <point x="240" y="-45"/>
      <point x="240" y="-127" type="curve" smooth="yes"/>
      <point x="240" y="-209"/>
      <point x="258" y="-230"/>
      <point x="303" y="-230" type="curve" smooth="yes"/>
      <point x="653" y="-230" type="line" smooth="yes"/>
      <point x="848" y="-230"/>
      <point x="950" y="-114"/>
      <point x="950" y="50" type="curve" smooth="yes"/>
      <point x="950" y="183"/>
      <point x="886" y="264"/>
      <point x="762" y="325" type="curve" smooth="yes"/>
      <point x="517" y="447" type="line" smooth="yes"/>
      <point x="450" y="480"/>
      <point x="415" y="512"/>
      <point x="415" y="575" type="curve" smooth="yes"/>
      <point x="415" y="628"/>
      <point x="445" y="659"/>
      <point x="504" y="689" type="curve"/>
      <point x="368" y="852" type="line"/>
    </contour>
  </outline>
</glyph>
<glyph name="onequarter" format="1">
  <advance width="1228"/>
  <unicode hex="00BC"/>
  <outline>
    <contour>
      <point x="995" y="503"/>
      <point x="969" y="490"/>
      <point x="950" y="466" type="curve" smooth="yes"/>
      <point x="636" y="83" type="line" smooth="yes"/>
      <point x="626" y="69"/>
      <point x="622" y="58"/>
      <point x="622" y="38" type="curve" smooth="yes"/>
      <point x="622" y="-9"/>
      <point x="650" y="-63"/>
      <point x="676" y="-63" type="curve" smooth="yes"/>
      <point x="1211" y="-63" type="line" smooth="yes"/>
      <point x="1242" y="-63"/>
      <point x="1255" y="-42"/>
      <point x="1255" y="8" type="curve" smooth="yes"/>
      <point x="1255" y="57"/>
      <point x="1242" y="79"/>
      <point x="1211" y="79" type="curve" smooth="yes"/>
      <point x="817" y="79" type="line"/>
      <point x="975" y="281" type="line"/>
      <point x="970" y="79" type="line"/>
      <point x="970" y="-184" type="line" smooth="yes"/>
      <point x="970" y="-210"/>
      <point x="995" y="-224"/>
      <point x="1061" y="-224" type="curve" smooth="yes"/>
      <point x="1121" y="-224"/>
      <point x="1135" y="-210"/>
      <point x="1135" y="-184" type="curve" smooth="yes"/>
      <point x="1135" y="455" type="line" smooth="yes"/>
      <point x="1135" y="484"/>
      <point x="1105" y="503"/>
      <point x="1044" y="503" type="curve" smooth="yes"/>
    </contour>
    <contour>
      <point x="105" y="319" type="line" smooth="yes"/>
      <point x="77" y="303"/>
      <point x="79" y="276"/>
      <point x="109" y="230" type="curve" smooth="yes"/>
      <point x="139" y="184"/>
      <point x="162" y="178"/>
      <point x="185" y="190" type="curve" smooth="yes"/>
      <point x="1122" y="711" type="line" smooth="yes"/>
      <point x="1150" y="727"/>
      <point x="1148" y="754"/>
      <point x="1118" y="800" type="curve" smooth="yes"/>
      <point x="1088" y="846"/>
      <point x="1065" y="852"/>
      <point x="1042" y="840" type="curve" smooth="yes"/>
    </contour>
    <contour>
      <point x="189" y="826" type="line"/>
      <point x="32" y="826" type="line" smooth="yes"/>
      <point x="1" y="826"/>
      <point x="-11" y="804"/>
      <point x="-11" y="755" type="curve" smooth="yes"/>
      <point x="-11" y="705"/>
      <point x="0" y="684"/>
      <point x="32" y="684" type="curve" smooth="yes"/>
      <point x="503" y="684" type="line" smooth="yes"/>
      <point x="533" y="684"/>
      <point x="546" y="705"/>
      <point x="546" y="755" type="curve" smooth="yes"/>
      <point x="546" y="804"/>
      <point x="533" y="826"/>
      <point x="503" y="826" type="curve" smooth="yes"/>
      <point x="351" y="826" type="line"/>
      <point x="351" y="1344" type="line" smooth="yes"/>
      <point x="351" y="1390"/>
      <point x="317" y="1402"/>
      <point x="281" y="1389" type="curve" smooth="yes"/>
      <point x="12" y="1298" type="line" smooth="yes"/>
      <point x="-24" y="1287"/>
      <point x="-29" y="1258"/>
      <point x="-14" y="1213" type="curve" smooth="yes"/>
      <point x="3" y="1159"/>
      <point x="27" y="1152"/>
      <point x="57" y="1162" type="curve" smooth="yes"/>
      <point x="189" y="1205" type="line"/>
    </contour>
  </outline>
</glyph>
<glyph name="onehalf" format="1">
  <advance width="1228"/>
  <unicode hex="00BD"/>
  <outline>
    <contour>
      <point x="874" y="494"/>
      <point x="787" y="474"/>
      <point x="713" y="439" type="curve" smooth="yes"/>
      <point x="686" y="425"/>
      <point x="673" y="400"/>
      <point x="691" y="349" type="curve" smooth="yes"/>
      <point x="709" y="298"/>
      <point x="734" y="287"/>
      <point x="761" y="299" type="curve" smooth="yes"/>
      <point x="827" y="329"/>
      <point x="891" y="349"/>
      <point x="948" y="349" type="curve" smooth="yes"/>
      <point x="1010" y="349"/>
      <point x="1046" y="316"/>
      <point x="1046" y="263" type="curve" smooth="yes"/>
      <point x="1046" y="220"/>
      <point x="1015" y="186"/>
      <point x="955" y="142" type="curve" smooth="yes"/>
      <point x="682" y="-69" type="line" smooth="yes"/>
      <point x="668" y="-80"/>
      <point x="659" y="-99"/>
      <point x="659" y="-133" type="curve" smooth="yes"/>
      <point x="659" y="-191"/>
      <point x="676" y="-216"/>
      <point x="703" y="-216" type="curve" smooth="yes"/>
      <point x="1198" y="-216" type="line" smooth="yes"/>
      <point x="1227" y="-216"/>
      <point x="1238" y="-202"/>
      <point x="1238" y="-145" type="curve" smooth="yes"/>
      <point x="1238" y="-89"/>
      <point x="1227" y="-74"/>
      <point x="1198" y="-74" type="curve" smooth="yes"/>
      <point x="894" y="-74" type="line"/>
      <point x="1059" y="45" type="line" smooth="yes"/>
      <point x="1152" y="112"/>
      <point x="1214" y="179"/>
      <point x="1214" y="271" type="curve" smooth="yes"/>
      <point x="1214" y="403"/>
      <point x="1126" y="494"/>
      <point x="961" y="494" type="curve" smooth="yes"/>
    </contour>
    <contour>
      <point x="105" y="369" type="line" smooth="yes"/>
      <point x="77" y="353"/>
      <point x="79" y="326"/>
      <point x="109" y="280" type="curve" smooth="yes"/>
      <point x="139" y="234"/>
      <point x="162" y="228"/>
      <point x="185" y="240" type="curve" smooth="yes"/>
      <point x="1122" y="761" type="line" smooth="yes"/>
      <point x="1150" y="777"/>
      <point x="1148" y="804"/>
      <point x="1118" y="850" type="curve" smooth="yes"/>
      <point x="1088" y="896"/>
      <point x="1065" y="902"/>
      <point x="1042" y="890" type="curve" smooth="yes"/>
    </contour>
    <contour>
      <point x="189" y="826" type="line"/>
      <point x="32" y="826" type="line" smooth="yes"/>
      <point x="1" y="826"/>
      <point x="-11" y="804"/>
      <point x="-11" y="755" type="curve" smooth="yes"/>
      <point x="-11" y="705"/>
      <point x="0" y="684"/>
      <point x="32" y="684" type="curve" smooth="yes"/>
      <point x="503" y="684" type="line" smooth="yes"/>
      <point x="533" y="684"/>
      <point x="546" y="705"/>
      <point x="546" y="755" type="curve" smooth="yes"/>
      <point x="546" y="804"/>
      <point x="533" y="826"/>
      <point x="503" y="826" type="curve" smooth="yes"/>
      <point x="351" y="826" type="line"/>
      <point x="351" y="1344" type="line" smooth="yes"/>
      <point x="351" y="1390"/>
      <point x="317" y="1402"/>
      <point x="281" y="1389" type="curve" smooth="yes"/>
      <point x="12" y="1298" type="line" smooth="yes"/>
      <point x="-24" y="1287"/>
      <point x="-29" y="1258"/>
      <point x="-14" y="1213" type="curve" smooth="yes"/>
      <point x="3" y="1159"/>
      <point x="27" y="1152"/>
      <point x="57" y="1162" type="curve" smooth="yes"/>
      <point x="189" y="1205" type="line"/>
    </contour>
  </outline>
</glyph>
<glyph name="AE" format="1">
  <advance width="1228"/>
  <unicode hex="00C6"/>
  <outline>
    <contour>
      <point x="428" y="1187" type="line" smooth="yes"/>
      <point x="383" y="1187"/>
      <point x="367" y="1168"/>
      <point x="354" y="1130" type="curve" smooth="yes"/>
      <point x="-7" y="97" type="line" smooth="yes"/>
      <point x="-23" y="52"/>
      <point x="-4" y="24"/>
      <point x="90" y="-1" type="curve" smooth="yes"/>
      <point x="183" y="-26"/>
      <point x="222" y="-17"/>
      <point x="238" y="27" type="curve" smooth="yes"/>
      <point x="349" y="354" type="line"/>
      <point x="360" y="409" type="line"/>
      <point x="533" y="952" type="line"/>
      <point x="626" y="952" type="line"/>
      <point x="626" y="1187" type="line"/>
    </contour>
    <contour>
      <point x="239" y="505" type="line"/>
      <point x="239" y="270" type="line"/>
      <point x="626" y="270" type="line"/>
      <point x="626" y="505" type="line"/>
    </contour>
    <contour>
      <point x="726" y="235" type="line"/>
      <point x="726" y="0" type="line"/>
      <point x="1117" y="0" type="line" smooth="yes"/>
      <point x="1162" y="0"/>
      <point x="1180" y="22"/>
      <point x="1180" y="117" type="curve" smooth="yes"/>
      <point x="1180" y="212"/>
      <point x="1162" y="235"/>
      <point x="1117" y="235" type="curve" smooth="yes"/>
    </contour>
    <contour>
      <point x="550" y="1187" type="line"/>
      <point x="550" y="63" type="line" smooth="yes"/>
      <point x="550" y="18"/>
      <point x="568" y="0"/>
      <point x="613" y="0" type="curve" smooth="yes"/>
      <point x="800" y="0" type="line"/>
      <point x="800" y="1187" type="line"/>
    </contour>
    <contour>
      <point x="726" y="729" type="line"/>
      <point x="726" y="494" type="line"/>
      <point x="1034" y="494" type="line" smooth="yes"/>
      <point x="1079" y="494"/>
      <point x="1097" y="516"/>
      <point x="1097" y="611" type="curve" smooth="yes"/>
      <point x="1097" y="706"/>
      <point x="1079" y="729"/>
      <point x="1034" y="729" type="curve" smooth="yes"/>
    </contour>
    <contour>
      <point x="726" y="1187" type="line"/>
      <point x="726" y="952" type="line"/>
      <point x="1097" y="952" type="line" smooth="yes"/>
      <point x="1142" y="952"/>
      <point x="1160" y="974"/>
      <point x="1160" y="1069" type="curve" smooth="yes"/>
      <point x="1160" y="1164"/>
      <point x="1142" y="1187"/>
      <point x="1097" y="1187" type="curve" smooth="yes"/>
    </contour>
  </outline>
</glyph>
<glyph name="Oslash" format="1">
  <advance width="1228"/>
  <unicode hex="00D8"/>
  <outline>
    <contour>
      <point x="1011" y="1291"/>
      <point x="987" y="1287"/>
      <point x="961" y="1250" type="curve" smooth="yes"/>
      <point x="115" y="44" type="line" smooth="yes"/>
      <point x="89" y="7"/>
      <point x="94" y="-18"/>
      <point x="156" y="-61" type="curve" smooth="yes"/>
      <point x="217" y="-104"/>
      <point x="242" y="-100"/>
      <point x="268" y="-63" type="curve" smooth="yes"/>
      <point x="1113" y="1143" type="line" smooth="yes"/>
      <point x="1139" y="1180"/>
      <point x="1134" y="1205"/>
      <point x="1073" y="1248" type="curve" smooth="yes"/>
    </contour>
    <component base="O"/>
  </outline>
</glyph>
<glyph name="aogonek" format="1">
  <advance width="1228"/>
  <unicode hex="0105"/>
  <outline>
    <contour>
      <point x="518" y="946"/>
      <point x="375" y="927"/>
      <point x="250" y="882" type="curve" smooth="yes"/>
      <point x="203" y="865"/>
      <point x="190" y="822"/>
      <point x="219" y="742" type="curve" smooth="yes"/>
      <point x="248" y="662"/>
      <point x="286" y="652"/>
      <point x="328" y="666" type="curve" smooth="yes"/>
      <point x="419" y="697"/>
      <point x="522" y="719"/>
      <point x="603" y="719" type="curve" smooth="yes"/>
      <point x="749" y="719"/>
      <point x="793" y="674"/>
      <point x="793" y="588" type="curve" smooth="yes"/>
      <point x="793" y="559" type="line"/>
      <point x="693" y="579"/>
      <point x="599" y="589"/>
      <point x="510" y="589" type="curve" smooth="yes"/>
      <point x="277" y="589"/>
      <point x="140" y="482"/>
      <point x="140" y="295" type="curve" smooth="yes"/>
      <point x="140" y="100"/>
      <point x="272" y="-22"/>
      <point x="498" y="-22" type="curve" smooth="yes"/>
      <point x="616" y="-22"/>
      <point x="726" y="20"/>
      <point x="823" y="89" type="curve"/>
      <point x="823" y="19" type="line"/>
      <point x="703" y="-58"/>
      <point x="609" y="-144"/>
      <point x="609" y="-269" type="curve" smooth="yes"/>
      <point x="609" y="-402"/>
      <point x="699" y="-472"/>
      <point x="855" y="-472" type="curve" smooth="yes"/>
      <point x="928" y="-472"/>
      <point x="1004" y="-459"/>
      <point x="1071" y="-438" type="curve" smooth="yes"/>
      <point x="1099" y="-429"/>
      <point x="1112" y="-399"/>
      <point x="1108" y="-353" type="curve" smooth="yes"/>
      <point x="1104" y="-307"/>
      <point x="1086" y="-281"/>
      <point x="1060" y="-285" type="curve" smooth="yes"/>
      <point x="1017" y="-292"/>
      <point x="979" y="-298"/>
      <point x="940" y="-298" type="curve" smooth="yes"/>
      <point x="883" y="-298"/>
      <point x="852" y="-278"/>
      <point x="852" y="-231" type="curve" smooth="yes"/>
      <point x="852" y="-160"/>
      <point x="918" y="-77"/>
      <point x="1025" y="12" type="curve" smooth="yes"/>
      <point x="1037" y="22"/>
      <point x="1043" y="38"/>
      <point x="1043" y="63" type="curve" smooth="yes"/>
      <point x="1043" y="579" type="line" smooth="yes"/>
      <point x="1043" y="804"/>
      <point x="932" y="946"/>
      <point x="627" y="946" type="curve" smooth="yes"/>
    </contour>
    <contour>
      <point x="616" y="383"/>
      <point x="700" y="375"/>
      <point x="793" y="356" type="curve"/>
      <point x="793" y="292" type="line"/>
      <point x="718" y="231"/>
      <point x="625" y="189"/>
      <point x="530" y="189" type="curve" smooth="yes"/>
      <point x="441" y="189"/>
      <point x="392" y="222"/>
      <point x="392" y="285" type="curve" smooth="yes"/>
      <point x="392" y="348"/>
      <point x="441" y="383"/>
      <point x="535" y="383" type="curve" smooth="yes"/>
    </contour>
  </outline>
</glyph>
<glyph name="dcaron" format="1">
  <advance width="1228"/>
  <unicode hex="010F"/>
  <outline>
    <contour>
      <point x="734" y="1312" type="line" smooth="yes"/>
      <point x="689" y="1312"/>
      <point x="671" y="1294"/>
      <point x="671" y="1249" type="curve" smooth="yes"/>
      <point x="671" y="838" type="line"/>
      <point x="617" y="906"/>
      <point x="541" y="946"/>
      <point x="453" y="946" type="curve" smooth="yes"/>
      <point x="211" y="946"/>
      <point x="73" y="732"/>
      <point x="73" y="462" type="curve" smooth="yes"/>
      <point x="73" y="192"/>
      <point x="211" y="-22"/>
      <point x="453" y="-22" type="curve" smooth="yes"/>
      <point x="559" y="-22"/>
      <point x="644" y="30"/>
      <point x="701" y="117" type="curve"/>
      <point x="701" y="63" type="line" smooth="yes"/>
      <point x="701" y="18"/>
      <point x="719" y="0"/>
      <point x="764" y="0" type="curve" smooth="yes"/>
      <point x="858" y="0" type="line" smooth="yes"/>
      <point x="903" y="0"/>
      <point x="921" y="18"/>
      <point x="921" y="63" type="curve" smooth="yes"/>
      <point x="921" y="1249" type="line" smooth="yes"/>
      <point x="921" y="1294"/>
      <point x="903" y="1312"/>
      <point x="858" y="1312" type="curve" smooth="yes"/>
    </contour>
    <contour>
      <point x="594" y="714"/>
      <point x="678" y="626"/>
      <point x="678" y="462" type="curve" smooth="yes"/>
      <point x="678" y="298"/>
      <point x="594" y="210"/>
      <point x="493" y="210" type="curve" smooth="yes"/>
      <point x="395" y="210"/>
      <point x="335" y="308"/>
      <point x="335" y="462" type="curve" smooth="yes"/>
      <point x="335" y="616"/>
      <point x="395" y="714"/>
      <point x="493" y="714" type="curve" smooth="yes"/>
    </contour>
    <component base="caron.alt" xOffset="813"/>
  </outline>
</glyph>
<glyph name="dcroat" format="1">
  <advance width="1228"/>
  <unicode hex="0111"/>
  <outline>
    <contour>
      <point x="854" y="1312" type="line" smooth="yes"/>
      <point x="809" y="1312"/>
      <point x="791" y="1294"/>
      <point x="791" y="1249" type="curve" smooth="yes"/>
      <point x="791" y="616" type="line"/>
      <point x="837" y="676" type="line"/>
      <point x="782" y="781"/>
      <point x="673" y="846"/>
      <point x="548" y="846" type="curve" smooth="yes"/>
      <point x="291" y="846"/>
      <point x="143" y="649"/>
      <point x="143" y="412" type="curve" smooth="yes"/>
      <point x="143" y="172"/>
      <point x="291" y="-22"/>
      <point x="548" y="-22" type="curve" smooth="yes"/>
      <point x="693" y="-22"/>
      <point x="820" y="63"/>
      <point x="868" y="197" type="curve"/>
      <point x="821" y="259" type="line"/>
      <point x="821" y="63" type="line" smooth="yes"/>
      <point x="821" y="18"/>
      <point x="839" y="0"/>
      <point x="884" y="0" type="curve" smooth="yes"/>
      <point x="978" y="0" type="line" smooth="yes"/>
      <point x="1023" y="0"/>
      <point x="1041" y="18"/>
      <point x="1041" y="63" type="curve" smooth="yes"/>
      <point x="1041" y="1249" type="line" smooth="yes"/>
      <point x="1041" y="1294"/>
      <point x="1023" y="1312"/>
      <point x="978" y="1312" type="curve" smooth="yes"/>
    </contour>
    <contour>
      <point x="703" y="614"/>
      <point x="798" y="545"/>
      <point x="798" y="412" type="curve" smooth="yes"/>
      <point x="798" y="281"/>
      <point x="703" y="210"/>
      <point x="588" y="210" type="curve" smooth="yes"/>
      <point x="475" y="210"/>
      <point x="405" y="288"/>
      <point x="405" y="412" type="curve" smooth="yes"/>
      <point x="405" y="536"/>
      <point x="475" y="614"/>
      <point x="588" y="614" type="curve" smooth="yes"/>
    </contour>
    <contour>
      <point x="586" y="1155" type="line" smooth="yes"/>
      <point x="541" y="1155"/>
      <point x="523" y="1137"/>
      <point x="523" y="1052" type="curve" smooth="yes"/>
      <point x="523" y="967"/>
      <point x="541" y="950"/>
      <point x="586" y="950" type="curve" smooth="yes"/>
      <point x="1148" y="950" type="line" smooth="yes"/>
      <point x="1193" y="950"/>
      <point x="1211" y="967"/>
      <point x="1211" y="1052" type="curve" smooth="yes"/>
      <point x="1211" y="1137"/>
      <point x="1193" y="1155"/>
      <point x="1148" y="1155" type="curve" smooth="yes"/>
    </contour>
  </outline>
</glyph>
<glyph name="eogonek" format="1">
  <advance width="1228"/>
  <unicode hex="0119"/>
  <outline>
    <contour>
      <point x="319" y="946"/>
      <point x="134" y="742"/>
      <point x="134" y="462" type="curve" smooth="yes"/>
      <point x="134" y="182"/>
      <point x="299" y="-22"/>
      <point x="598" y="-22" type="curve" smooth="yes"/>
      <point x="640" y="-22"/>
      <point x="683" y="-20"/>
      <point x="726" y="-15" type="curve"/>
      <point x="631" y="-84"/>
      <point x="563" y="-162"/>
      <point x="563" y="-269" type="curve" smooth="yes"/>
      <point x="563" y="-402"/>
      <point x="653" y="-472"/>
      <point x="809" y="-472" type="curve" smooth="yes"/>
      <point x="882" y="-472"/>
      <point x="958" y="-459"/>
      <point x="1025" y="-438" type="curve" smooth="yes"/>
      <point x="1053" y="-429"/>
      <point x="1066" y="-399"/>
      <point x="1062" y="-353" type="curve" smooth="yes"/>
      <point x="1058" y="-307"/>
      <point x="1040" y="-281"/>
      <point x="1014" y="-285" type="curve" smooth="yes"/>
      <point x="971" y="-292"/>
      <point x="933" y="-298"/>
      <point x="894" y="-298" type="curve" smooth="yes"/>
      <point x="837" y="-298"/>
      <point x="806" y="-278"/>
      <point x="806" y="-231" type="curve" smooth="yes"/>
      <point x="806" y="-168"/>
      <point x="857" y="-92"/>
      <point x="973" y="6" type="curve" smooth="yes"/>
      <point x="995" y="26"/>
      <point x="1020" y="46"/>
      <point x="1048" y="67" type="curve"/>
      <point x="1072" y="87"/>
      <point x="1082" y="113"/>
      <point x="1065" y="176" type="curve" smooth="yes"/>
      <point x="1043" y="258"/>
      <point x="1017" y="273"/>
      <point x="974" y="260" type="curve" smooth="yes"/>
      <point x="842" y="220"/>
      <point x="726" y="205"/>
      <point x="618" y="205" type="curve" smooth="yes"/>
      <point x="501" y="205"/>
      <point x="421" y="262"/>
      <point x="395" y="370" type="curve"/>
      <point x="1037" y="370" type="line" smooth="yes"/>
      <point x="1082" y="370"/>
      <point x="1100" y="387"/>
      <point x="1100" y="432" type="curve" smooth="yes"/>
      <point x="1100" y="729"/>
      <point x="940" y="946"/>
      <point x="628" y="946" type="curve" smooth="yes"/>
    </contour>
    <contour>
      <point x="743" y="719"/>
      <point x="823" y="661"/>
      <point x="845" y="565" type="curve"/>
      <point x="399" y="565" type="line"/>
      <point x="428" y="669"/>
      <point x="508" y="719"/>
      <point x="628" y="719" type="curve" smooth="yes"/>
    </contour>
  </outline>
</glyph>
<glyph name="dotlessi" format="1">
  <advance width="1228"/>
  <unicode hex="0131"/>
  <outline>
    <contour>
      <point x="290" y="924" type="line" smooth="yes"/>
      <point x="245" y="924"/>
      <point x="227" y="901"/>
      <point x="227" y="811" type="curve" smooth="yes"/>
      <point x="227" y="721"/>
      <point x="245" y="699"/>
      <point x="290" y="699" type="curve" smooth="yes"/>
      <point x="503" y="699" type="line"/>
      <point x="503" y="225" type="line"/>
      <point x="230" y="225" type="line" smooth="yes"/>
      <point x="185" y="225"/>
      <point x="167" y="202"/>
      <point x="167" y="112" type="curve" smooth="yes"/>
      <point x="167" y="22"/>
      <point x="185" y="0"/>
      <point x="230" y="0" type="curve" smooth="yes"/>
      <point x="1034" y="0" type="line" smooth="yes"/>
      <point x="1079" y="0"/>
      <point x="1097" y="22"/>
      <point x="1097" y="112" type="curve" smooth="yes"/>
      <point x="1097" y="202"/>
      <point x="1079" y="225"/>
      <point x="1034" y="225" type="curve" smooth="yes"/>
      <point x="753" y="225" type="line"/>
      <point x="753" y="861" type="line" smooth="yes"/>
      <point x="753" y="906"/>
      <point x="735" y="924"/>
      <point x="690" y="924" type="curve" smooth="yes"/>
    </contour>
  </outline>
</glyph>
<glyph name="breve.case" format="1">
  <advance width="1228"/>
  <outline>
    <contour>
      <point x="880" y="1655"/>
      <point x="864" y="1649"/>
      <point x="855" y="1635" type="curve" smooth="yes"/>
      <point x="809" y="1560"/>
      <point x="742" y="1515"/>
      <point x="614" y="1515" type="curve" smooth="yes"/>
      <point x="486" y="1515"/>
      <point x="419" y="1560"/>
      <point x="373" y="1635" type="curve" smooth="yes"/>
      <point x="364" y="1649"/>
      <point x="348" y="1655"/>
      <point x="329" y="1655" type="curve" smooth="yes"/>
      <point x="280" y="1655"/>
      <point x="214" y="1615"/>
      <point x="227" y="1568" type="curve" smooth="yes"/>
      <point x="270" y="1410"/>
      <point x="397" y="1311"/>
      <point x="614" y="1311" type="curve" smooth="yes"/>
      <point x="831" y="1311"/>
      <point x="958" y="1410"/>
      <point x="1001" y="1568" type="curve" smooth="yes"/>
      <point x="1014" y="1615"/>
      <point x="948" y="1655"/>
      <point x="899" y="1655" type="curve" smooth="yes"/>
    </contour>
    <contour>
      <point x="614" y="1187" type="move" name="_top"/>
    </contour>
  </outline>
</glyph>
<glyph name="dotaccent.case" format="1">
  <advance width="1228"/>
  <outline>
    <contour>
      <point x="739" y="1550" type="line" smooth="yes"/>
      <point x="739" y="1595"/>
      <point x="706" y="1613"/>
      <point x="611" y="1613" type="curve" smooth="yes"/>
      <point x="516" y="1613"/>
      <point x="489" y="1595"/>
      <point x="489" y="1550" type="curve" smooth="yes"/>
      <point x="489" y="1386" type="line" smooth="yes"/>
      <point x="489" y="1341"/>
      <point x="521" y="1323"/>
      <point x="616" y="1323" type="curve" smooth="yes"/>
      <point x="711" y="1323"/>
      <point x="739" y="1341"/>
      <point x="739" y="1386" type="curve" smooth="yes"/>
    </contour>
    <contour>
      <point x="614" y="1187" type="move" name="_top"/>
    </contour>
  </outline>
</glyph>
<glyph name="grave.case" format="1">
  <advance width="1228"/>
  <outline>
    <contour>
      <point x="404" y="1661" type="line" smooth="yes"/>
      <point x="365" y="1683"/>
      <point x="324" y="1670"/>
      <point x="283" y="1567" type="curve" smooth="yes"/>
      <point x="247" y="1476"/>
      <point x="258" y="1443"/>
      <point x="291" y="1434" type="curve" smooth="yes"/>
      <point x="767" y="1300" type="line" smooth="yes"/>
      <point x="798" y="1291"/>
      <point x="821" y="1305"/>
      <point x="836" y="1352" type="curve" smooth="yes"/>
      <point x="850" y="1395"/>
      <point x="840" y="1420"/>
      <point x="812" y="1435" type="curve" smooth="yes"/>
    </contour>
    <contour>
      <point x="614" y="1187" type="move" name="_top"/>
    </contour>
  </outline>
</glyph>
<glyph name="macron.case" format="1">
  <advance width="1228"/>
  <outline>
    <contour>
      <point x="333" y="1545" type="line" smooth="yes"/>
      <point x="288" y="1545"/>
      <point x="270" y="1527"/>
      <point x="270" y="1442" type="curve" smooth="yes"/>
      <point x="270" y="1357"/>
      <point x="288" y="1340"/>
      <point x="333" y="1340" type="curve" smooth="yes"/>
      <point x="895" y="1340" type="line" smooth="yes"/>
      <point x="940" y="1340"/>
      <point x="958" y="1357"/>
      <point x="958" y="1442" type="curve" smooth="yes"/>
      <point x="958" y="1527"/>
      <point x="940" y="1545"/>
      <point x="895" y="1545" type="curve" smooth="yes"/>
    </contour>
    <contour>
      <point x="614" y="1187" type="move" name="_top"/>
    </contour>
  </outline>
</glyph>
